<svg x="0" y="0" width="48" height="48" version="1.1" xmlns="http://www.w3.org/2000/svg" xmlns:xlink="http://www.w3.org/1999/xlink"><defs><linearGradient x1="7.76341" y1="7.76341" x2="63.94143" y2="63.94143" gradientUnits="userSpaceOnUse" id="color-1"><stop offset="0" stop-color="#000000" stop-opacity="0.4"></stop><stop offset="1" stop-color="#000000" stop-opacity="0"></stop></linearGradient><filter id="dropshadow"><feColorMatrix type="matrix" values="0 0 0 0 .05  0 0 0 0 .15  0 0 0 0 .1  0 0 0 .8 0"></feColorMatrix> <feOffset dx="0" dy="1"></feOffset> <feGaussianBlur stdDeviation="1"></feGaussianBlur> <feComposite in="SourceGraphic"></feComposite></filter></defs><g fill="none" stroke="none" stroke-width="none" stroke-linecap="butt" stroke-linejoin="miter" stroke-miterlimit="none" stroke-dasharray="" stroke-dashoffset="0" font-family="none" font-weight="normal" font-size="none" text-anchor="start" mix-blend-mode="normal"><g fill="#000000" stroke="none" stroke-width="1" stroke-miterlimit="4" font-family="'Open Sans', sans-serif" font-size="14"></g><path d="M6,44c-1.10457,0 -2,-0.89543 -2,-2l0,-36c0,-1.10457 0.89543,-2 2,-2l36,0c1.10457,0 2,0.89543 2,2l0,36c0,1.10457 -0.89543,2 -2,2z" fill="#a82d2d" stroke-width="1" stroke-miterlimit="10" font-family="sans-serif" font-size="12" filter="url(#dropshadow)"></path><path d="M12.52861,35.49729l-0.01099,-0.01099c-2.93812,-2.93812 -4.75421,-6.99891 -4.75421,-11.4863c0,-8.97071 7.25776,-16.23659 16.22847,-16.23659c4.48739,0 8.55021,1.81811 11.49037,4.75826c0,0 8.51775,8.51775 8.51775,8.51775l0,20.96057c0,1.10457 -0.89543,2 -2,2l-20.96869,0l-8.5137,-8.5137c0.00366,0.00366 0.00733,0.00733 0.011,0.01099z" fill="url(#color-1)" stroke-width="1" stroke-miterlimit="10" font-family="sans-serif" font-size="12"></path><path d="M40.23659,24c0,8.97072 -7.27399,16.23659 -16.24471,16.23659c-8.97072,0 -16.22847,-7.26588 -16.22847,-16.23659c0,-8.97072 7.25776,-16.23659 16.22847,-16.23659c8.97072,0 16.24471,7.26588 16.24471,16.23659z M36.98927,24c0,-7.17657 -5.8127,-12.98927 -12.98927,-12.98927c-7.17657,0 -12.98927,5.8127 -12.98927,12.98927c0,7.17657 5.8127,12.98927 12.98927,12.98927c7.17657,0 12.98927,-5.8127 12.98927,-12.98927z M24.81183,24.40591l7.30647,4.33517l-1.22586,1.9971l-8.51609,-5.11453l0,-9.74196l2.43549,0z" fill="#ffffff" stroke="none" stroke-width="0" stroke-miterlimit="4" font-family="'Open Sans', sans-serif" font-size="14"></path></g></svg>